<?xml version="1.0" encoding="UTF-8"?>
<svg version="1.1" xmlns="http://www.w3.org/2000/svg" width="500" height="500">
<path d="M0 0 C15.18 0 30.36 0 46 0 C46 0.99 46 1.98 46 3 C47.17357056 3.03758423 47.17357056 3.03758423 48.37084961 3.07592773 C51.89324949 3.19149788 55.4153556 3.31439949 58.9375 3.4375 C60.78504883 3.49647461 60.78504883 3.49647461 62.66992188 3.55664062 C63.83974609 3.59853516 65.00957031 3.64042969 66.21484375 3.68359375 C67.84087524 3.73858032 67.84087524 3.73858032 69.49975586 3.79467773 C72 4 72 4 73 5 C73.09565123 6.4674896 73.12188309 7.93956884 73.12025452 9.41017151 C73.12231651 10.83843262 73.12231651 10.83843262 73.12442017 12.29554749 C73.11902725 13.87510475 73.11902725 13.87510475 73.11352539 15.48657227 C73.11367142 16.58887177 73.11381744 17.69117126 73.1139679 18.82687378 C73.11326821 22.49007092 73.10547324 26.15321794 73.09765625 29.81640625 C73.09579227 32.34846468 73.09436827 34.88052348 73.09336853 37.4125824 C73.08993346 43.40848249 73.08204269 49.40436089 73.07201904 55.40025228 C73.06085677 62.22481058 73.05534717 69.04936972 73.05032361 75.87393486 C73.03986004 89.91596664 73.0222613 103.95798233 73 118 C53.49853029 118.81459509 34.03993626 119.16221423 14.5234375 119.13037109 C10.8866904 119.12451987 7.25001464 119.12807247 3.61326981 119.13394356 C0.77727707 119.13753507 -2.05869825 119.13641979 -4.89469147 119.13381577 C-6.88737537 119.13282957 -8.88005996 119.13585274 -10.8727417 119.13894653 C-12.06039124 119.13579437 -13.24804077 119.13264221 -14.47167969 119.12939453 C-15.51894226 119.12859894 -16.56620483 119.12780334 -17.64520264 119.12698364 C-20 119 -20 119 -21 118 C-21.09568576 116.51983606 -21.12188268 115.03511727 -21.12025452 113.55186462 C-21.12162918 112.5912764 -21.12300385 111.63068817 -21.12442017 110.64099121 C-21.12082489 109.57860229 -21.11722961 108.51621338 -21.11352539 107.42163086 C-21.11367142 106.30957779 -21.11381744 105.19752472 -21.1139679 104.05177307 C-21.11326821 100.35611049 -21.1054732 96.66049759 -21.09765625 92.96484375 C-21.09579227 90.41036507 -21.09436827 87.85588603 -21.09336853 85.30140686 C-21.08993344 79.2523829 -21.08204264 73.20338045 -21.07201904 67.15436512 C-21.06085683 60.26934846 -21.05534718 53.38433096 -21.05032361 46.49930751 C-21.03986 32.33285987 -21.02151495 18.16643494 -21 4 C-14.07 4 -7.14 4 0 4 C0 2.68 0 1.36 0 0 Z " fill="#37374B" transform="translate(221,160)"/>
<path d="M0 0 C15.18 0 30.36 0 46 0 C46 0.99 46 1.98 46 3 C58.87 3.495 58.87 3.495 72 4 C72 4.33 72 4.66 72 5 C62.1 5 52.2 5 42 5 C42 9.29 42 13.58 42 18 C36.80390542 18.07421905 31.60812017 18.12863446 26.41162109 18.16479492 C24.64431381 18.17987102 22.87704386 18.20033522 21.10986328 18.22631836 C18.56794005 18.26275402 16.02651194 18.27973794 13.484375 18.29296875 C12.69569031 18.30845261 11.90700562 18.32393646 11.09442139 18.33988953 C6.27464467 18.34136445 5.04509905 18.03382429 1 15 C1 11.7 1 8.4 1 5 C-5.93 5 -12.86 5 -20 5 C-20 42.29 -20 79.58 -20 118 C-20.33 118 -20.66 118 -21 118 C-21 80.38 -21 42.76 -21 4 C-14.07 4 -7.14 4 0 4 C0 2.68 0 1.36 0 0 Z " fill="#4B9DDC" transform="translate(221,160)"/>
<path d="M0 0 C-0.33 1.98 -0.66 3.96 -1 6 C-0.07566162 5.67402832 0.84867676 5.34805664 1.80102539 5.01220703 C6.88770955 3.56760498 11.93383881 3.75123484 17.18359375 3.8046875 C18.23909927 3.8075174 19.2946048 3.81034729 20.38209534 3.81326294 C23.73401504 3.82440585 27.08566184 3.84949976 30.4375 3.875 C32.71809508 3.8850374 34.99869438 3.89416192 37.27929688 3.90234375 C42.85296881 3.92432593 48.42643822 3.95881527 54 4 C54 7.3 54 10.6 54 14 C52.4958252 14.01981934 50.99165039 14.03963867 49.44189453 14.06005859 C43.87694155 14.13596045 38.31225535 14.22470117 32.74755859 14.31738281 C30.33615372 14.35573647 27.92469038 14.3905779 25.51318359 14.421875 C22.05284687 14.46738703 18.59291492 14.52540404 15.1328125 14.5859375 C13.50776291 14.60326431 13.50776291 14.60326431 11.84988403 14.62094116 C10.8489975 14.64081085 9.84811096 14.66068054 8.81689453 14.68115234 C7.93309113 14.69447601 7.04928772 14.70779968 6.13870239 14.7215271 C3.7867175 14.80669004 3.7867175 14.80669004 2 17 C-0.5 17.3125 -0.5 17.3125 -3 17 C-3.66 16.01 -4.32 15.02 -5 14 C-7.89608399 13.63501966 -7.89608399 13.63501966 -11.125 13.8125 C-12.22070312 13.83957031 -13.31640625 13.86664063 -14.4453125 13.89453125 C-15.70988281 13.94673828 -15.70988281 13.94673828 -17 14 C-17.19406478 12.35492782 -17.38007935 10.70890406 -17.5625 9.0625 C-17.66691406 8.14597656 -17.77132812 7.22945312 -17.87890625 6.28515625 C-17.91886719 5.53105469 -17.95882812 4.77695313 -18 4 C-17 3 -17 3 -14.27734375 2.90234375 C-12.62412109 2.91974609 -12.62412109 2.91974609 -10.9375 2.9375 C-9.28041016 2.95103516 -9.28041016 2.95103516 -7.58984375 2.96484375 C-6.73519531 2.97644531 -5.88054687 2.98804688 -5 3 C-5 2.34 -5 1.68 -5 1 C-3 0 -3 0 0 0 Z " fill="#35B1F3" transform="translate(227,209)"/>
<path d="M0 0 C16.17 0 32.34 0 49 0 C49 3.3 49 6.6 49 10 C33.16 10 17.32 10 1 10 C0 8 0 8 0 0 Z " fill="#3EB1F0" transform="translate(232,192)"/>
<path d="M0 0 C15.84 0 31.68 0 48 0 C48 2.97 48 5.94 48 9 C32.16 9 16.32 9 0 9 C0 6.03 0 3.06 0 0 Z " fill="#3EB3EE" transform="translate(233,255)"/>
<path d="M0 0 C15.84 0 31.68 0 48 0 C48 2.97 48 5.94 48 9 C32.16 9 16.32 9 0 9 C0 6.03 0 3.06 0 0 Z " fill="#3484C4" transform="translate(233,234)"/>
<path d="M0 0 C3.9945143 1.84362199 6.19728009 3.72626019 8 7.6875 C9.50818093 12.43383409 8.69474858 16.40514689 7 21 C5.52270253 23.74355244 4.46638932 24.72016641 1.8125 26.3125 C-2.04890307 27.25639853 -5.19074886 27.14662307 -9 26 C-12.33002571 23.87445167 -13.6978678 22.30592669 -14.59375 18.43359375 C-15.22359385 13.17296612 -15.25914013 8.91695204 -13 4 C-12.34 4 -11.68 4 -11 4 C-11 3.34 -11 2.68 -11 2 C-7.33237392 -0.34728069 -4.28301385 -0.4430704 0 0 Z M-5 7 C-7.42520546 9.42520546 -7.68564441 10.62067741 -8 14 C-7.36784258 16.74858021 -7.36784258 16.74858021 -6 19 C-5.01 19.33 -4.02 19.66 -3 20 C-0.17209742 17.70232915 0.91278296 16.61051925 1.4375 12.9375 C1.22766179 10.02821304 1.22766179 10.02821304 -0.3125 8.125 C-2.07800472 6.7226499 -2.07800472 6.7226499 -5 7 Z " fill="#4D4B5B" transform="translate(249,311)"/>
<path d="M0 0 C13.56191038 -0.41096698 13.56191038 -0.41096698 18 3 C20.7475472 5.89785066 21.43131541 7.90449579 21.4375 11.875 C21.29041419 16.62377057 20.24310113 19.3965543 17 23 C13.48574037 25.34816439 10.4002211 25.20800442 6.25 25.125 C3.15625 25.063125 3.15625 25.063125 0 25 C0 16.75 0 8.5 0 0 Z M7 6 C7.33 10.29 7.66 14.58 8 19 C13.01431959 16.75393583 13.01431959 16.75393583 13.59375 14.02734375 C13.50327623 12.01053267 13.25431832 10.00275675 13 8 C10.18490007 5.7226499 10.18490007 5.7226499 7 6 Z " fill="#555263" transform="translate(209,312)"/>
<path d="M0 0 C3.375 1.875 3.375 1.875 6 4 C6 4.66 6 5.32 6 6 C6.66 6 7.32 6 8 6 C8.05398987 8.27057377 8.09278742 10.54151288 8.125 12.8125 C8.14820313 14.07707031 8.17140625 15.34164063 8.1953125 16.64453125 C8 20 8 20 6 23 C5.34 23 4.68 23 4 23 C4 23.66 4 24.32 4 25 C-0.33782222 27.23463569 -3.29003174 27.17749207 -8 26 C-11.90953814 23.56739849 -13.85505413 21.47569751 -15 17 C-15.47553221 11.76914571 -14.92947164 8.39420747 -12 4 C-8.01979369 0.6389369 -5.21650993 -0.86941832 0 0 Z M-5 7 C-7.44897847 10.67346771 -7.31537716 12.66356399 -7 17 C-6.34 17.66 -5.68 18.32 -5 19 C-2.42459787 18.83492354 -2.42459787 18.83492354 0 18 C1.38550197 15.22899606 1.1877467 13.0665294 1 10 C0.34 9.01 -0.32 8.02 -1 7 C-2.32 7 -3.64 7 -5 7 Z " fill="#474455" transform="translate(181,311)"/>
<path d="M0 0 C2.375 0.8125 2.375 0.8125 4 2 C4.33 2.99 4.66 3.98 5 5 C3.5625 7.1875 3.5625 7.1875 2 9 C-0.31 8.34 -2.62 7.68 -5 7 C-5 7.66 -5 8.32 -5 9 C-3.39125 9.3403125 -3.39125 9.3403125 -1.75 9.6875 C2.46921512 11.16422529 3.90774067 12.07701376 6 16 C6.125 19.5625 6.125 19.5625 5 23 C2.37009665 25.62990335 0.52658618 26.94189464 -3.2578125 27.0859375 C-7.30435307 26.72535468 -10.41947054 25.96038038 -14 24 C-14 23.01 -14 22.02 -14 21 C-13.34 21 -12.68 21 -12 21 C-11.67 20.01 -11.34 19.02 -11 18 C-6.545 18.99 -6.545 18.99 -2 20 C-2 19.34 -2 18.68 -2 18 C-4.64 17.34 -7.28 16.68 -10 16 C-10 15.34 -10 14.68 -10 14 C-10.66 14 -11.32 14 -12 14 C-13.34323432 7.77227723 -13.34323432 7.77227723 -11.75 4.1875 C-8.21644501 -0.22944374 -5.41706688 -0.38014504 0 0 Z " fill="#514F5E" transform="translate(321,311)"/>
<path d="M0 0 C-0.33 1.98 -0.66 3.96 -1 6 C-0.07566162 5.67402832 0.84867676 5.34805664 1.80102539 5.01220703 C6.88770955 3.56760498 11.93383881 3.75123484 17.18359375 3.8046875 C18.23909927 3.8075174 19.2946048 3.81034729 20.38209534 3.81326294 C23.73401504 3.82440585 27.08566184 3.84949976 30.4375 3.875 C32.71809508 3.8850374 34.99869438 3.89416192 37.27929688 3.90234375 C42.85296881 3.92432593 48.42643822 3.95881527 54 4 C54 7.3 54 10.6 54 14 C52.4958252 14.01981934 50.99165039 14.03963867 49.44189453 14.06005859 C43.87694155 14.13596045 38.31225535 14.22470117 32.74755859 14.31738281 C30.33615372 14.35573647 27.92469038 14.3905779 25.51318359 14.421875 C22.05284687 14.46738703 18.59291492 14.52540404 15.1328125 14.5859375 C13.50776291 14.60326431 13.50776291 14.60326431 11.84988403 14.62094116 C10.8489975 14.64081085 9.84811096 14.66068054 8.81689453 14.68115234 C7.93309113 14.69447601 7.04928772 14.70779968 6.13870239 14.7215271 C3.7867175 14.80669004 3.7867175 14.80669004 2 17 C-0.5 17.3125 -0.5 17.3125 -3 17 C-3.66 16.01 -4.32 15.02 -5 14 C-7.89608399 13.63501966 -7.89608399 13.63501966 -11.125 13.8125 C-12.22070312 13.83957031 -13.31640625 13.86664063 -14.4453125 13.89453125 C-15.70988281 13.94673828 -15.70988281 13.94673828 -17 14 C-17.19406478 12.35492782 -17.38007935 10.70890406 -17.5625 9.0625 C-17.66691406 8.14597656 -17.77132812 7.22945312 -17.87890625 6.28515625 C-17.91886719 5.53105469 -17.95882812 4.77695313 -18 4 C-17 3 -17 3 -14.27734375 2.90234375 C-12.62412109 2.91974609 -12.62412109 2.91974609 -10.9375 2.9375 C-9.28041016 2.95103516 -9.28041016 2.95103516 -7.58984375 2.96484375 C-6.73519531 2.97644531 -5.88054687 2.98804688 -5 3 C-5 2.34 -5 1.68 -5 1 C-3 0 -3 0 0 0 Z M6 5 C6 7.64 6 10.28 6 13 C21.51 13 37.02 13 53 13 C53 10.36 53 7.72 53 5 C37.49 5 21.98 5 6 5 Z " fill="#39516F" transform="translate(227,209)"/>
<path d="M0 0 C1.2694043 -0.00193359 1.2694043 -0.00193359 2.56445312 -0.00390625 C3.44939453 -0.00003906 4.33433594 0.00382812 5.24609375 0.0078125 C6.13490234 0.00394531 7.02371094 0.00007813 7.93945312 -0.00390625 C8.78443359 -0.00261719 9.62941406 -0.00132812 10.5 0 C11.66704468 0.00169189 11.66704468 0.00169189 12.85766602 0.00341797 C14.68359375 0.1328125 14.68359375 0.1328125 15.68359375 1.1328125 C15.72440158 3.13239614 15.72613731 5.13326504 15.68359375 7.1328125 C13.37359375 7.1328125 11.06359375 7.1328125 8.68359375 7.1328125 C8.68359375 13.4028125 8.68359375 19.6728125 8.68359375 26.1328125 C6.37359375 26.1328125 4.06359375 26.1328125 1.68359375 26.1328125 C1.68359375 19.8628125 1.68359375 13.5928125 1.68359375 7.1328125 C-0.62640625 7.1328125 -2.93640625 7.1328125 -5.31640625 7.1328125 C-6.31640625 6.1328125 -6.31640625 6.1328125 -6.37890625 3.5703125 C-6.35828125 2.7659375 -6.33765625 1.9615625 -6.31640625 1.1328125 C-3.98476789 -0.03300668 -2.59487143 0.00375641 0 0 Z " fill="#52505D" transform="translate(147.31640625,310.8671875)"/>
<path d="M0 0 C6.93 0 13.86 0 21 0 C21 1.98 21 3.96 21 6 C18.69 6 16.38 6 14 6 C14 12.27 14 18.54 14 25 C11.69 25.33 9.38 25.66 7 26 C6 25 6 25 5.88647461 23.14233398 C5.89432983 21.95619507 5.89432983 21.95619507 5.90234375 20.74609375 C5.90556641 19.89208984 5.90878906 19.03808594 5.91210938 18.15820312 C5.92048828 17.26037109 5.92886719 16.36253906 5.9375 15.4375 C5.94201172 14.53580078 5.94652344 13.63410156 5.95117188 12.70507812 C5.96299775 10.46998686 5.9794778 8.23502563 6 6 C4.02 6 2.04 6 0 6 C-1 3 -1 3 0 0 Z " fill="#4D4958" transform="translate(330,312)"/>
<path d="M0 0 C2.31 0 4.62 0 7 0 C7 6.27 7 12.54 7 19 C10.3 19 13.6 19 17 19 C17 20.98 17 22.96 17 25 C11.39 25 5.78 25 0 25 C0 16.75 0 8.5 0 0 Z " fill="#545261" transform="translate(272,312)"/>
<path d="M0 0 C2.31 0 4.62 0 7 0 C7 8.58 7 17.16 7 26 C4.69 26 2.38 26 0 26 C-0.99259618 23.02221146 -1.12891582 21.03757049 -1.1328125 17.9296875 C-1.13410156 16.95128906 -1.13539063 15.97289062 -1.13671875 14.96484375 C-1.13285156 13.94519531 -1.12898438 12.92554688 -1.125 11.875 C-1.12886719 10.84761719 -1.13273437 9.82023437 -1.13671875 8.76171875 C-1.13542969 7.78589844 -1.13414062 6.81007813 -1.1328125 5.8046875 C-1.13168457 4.90733887 -1.13055664 4.00999023 -1.12939453 3.08544922 C-1 1 -1 1 0 0 Z " fill="#4D4A5A" transform="translate(295,312)"/>
<path d="M0 0 C9.9 0 19.8 0 30 0 C30 2 30 2 27.9296875 4.60546875 C22.67669844 8.81002172 15.47794238 7.51475009 9.125 7.3125 C7.75524892 7.28739222 6.38545365 7.26458339 5.015625 7.24414062 C1.67595378 7.1853436 -1.66145431 7.10319834 -5 7 C-4.34 6.67 -3.68 6.34 -3 6 C-2.67 5.01 -2.34 4.02 -2 3 C-1.34 3 -0.68 3 0 3 C0 2.01 0 1.02 0 0 Z " fill="#3AB2F2" transform="translate(242,235)"/>
<path d="M0 0 C14.85 0 29.7 0 45 0 C45 0.66 45 1.32 45 2 C57.87 2.495 57.87 2.495 71 3 C71 3.33 71 3.66 71 4 C61.1 4 51.2 4 41 4 C41 8.29 41 12.58 41 17 C35.76726669 17.04935824 30.53466824 17.08569949 25.30175781 17.10986328 C23.52080933 17.11993431 21.73987743 17.13359185 19.95898438 17.15087891 C17.40230217 17.17507913 14.84583815 17.18647184 12.2890625 17.1953125 C11.49005524 17.20563507 10.69104797 17.21595764 9.86782837 17.22659302 C7.9104278 17.22699226 5.95356923 17.12241069 4 17 C3.34 16.34 2.68 15.68 2 15 C13.88 15.33 25.76 15.66 38 16 C39.52704628 11.94590745 39.52704628 11.94590745 39 3 C19.695 2.505 19.695 2.505 0 2 C0 1.34 0 0.68 0 0 Z " fill="#508DC0" transform="translate(222,161)"/>
<path d="M0 0 C0.99 0.33 1.98 0.66 3 1 C1.125 4.875 1.125 4.875 0 6 C-0.23075082 7.34747084 -0.41153063 8.70377565 -0.5625 10.0625 C-0.706875 11.361875 -0.85125 12.66125 -1 14 C-5.62 14 -10.24 14 -15 14 C-15.09765625 6.28515625 -15.09765625 6.28515625 -15 4 C-12.78694089 1.78694089 -7.78059633 2.54670802 -4.78515625 2.37890625 C-1.86415567 2.2677106 -1.86415567 2.2677106 0 0 Z " fill="#DAF5FD" transform="translate(224,250)"/>
<path d="M0 0 C0.99 0.33 1.98 0.66 3 1 C1.125 4.875 1.125 4.875 0 6 C-0.23075082 7.34747084 -0.41153063 8.70377565 -0.5625 10.0625 C-0.706875 11.361875 -0.85125 12.66125 -1 14 C-5.62 14 -10.24 14 -15 14 C-15.09765625 6.28515625 -15.09765625 6.28515625 -15 4 C-12.78694089 1.78694089 -7.78059633 2.54670802 -4.78515625 2.37890625 C-1.86415567 2.2677106 -1.86415567 2.2677106 0 0 Z " fill="#D0EAF4" transform="translate(224,188)"/>
<path d="M0 0 C-0.63451777 3.68020305 -0.63451777 3.68020305 -2.5 5.3125 C-4.79784024 7.89757027 -4.6837707 10.64796938 -5 14 C-8.96 14 -12.92 14 -17 14 C-17.87890625 6.28515625 -17.87890625 6.28515625 -18 4 C-17 3 -17 3 -14.27734375 2.90234375 C-12.62412109 2.91974609 -12.62412109 2.91974609 -10.9375 2.9375 C-9.28041016 2.95103516 -9.28041016 2.95103516 -7.58984375 2.96484375 C-6.73519531 2.97644531 -5.88054687 2.98804688 -5 3 C-5 2.34 -5 1.68 -5 1 C-3 0 -3 0 0 0 Z " fill="#DCF2F8" transform="translate(227,209)"/>
<path d="M0 0 C2.0625 1.5625 2.0625 1.5625 4 4 C4.125 7.5 4.125 7.5 3 11 C0.37009665 13.62990335 -1.47341382 14.94189464 -5.2578125 15.0859375 C-9.30435307 14.72535468 -12.41947054 13.96038038 -16 12 C-16 11.01 -16 10.02 -16 9 C-15.34 9 -14.68 9 -14 9 C-13.67 8.01 -13.34 7.02 -13 6 C-8.545 6.99 -8.545 6.99 -4 8 C-3.67 7.34 -3.34 6.68 -3 6 C-2.67 6.33 -2.34 6.66 -2 7 C-1.34 4.69 -0.68 2.38 0 0 Z " fill="#5B5A68" transform="translate(323,323)"/>
<path d="M0 0 C0.99 0.33 1.98 0.66 3 1 C1.25 4.875 1.25 4.875 -1 6 C-1.73075648 8.3140622 -2.40138258 10.64828869 -3 13 C-6.63 13 -10.26 13 -14 13 C-14.33 9.7 -14.66 6.4 -15 3 C-13.75283203 2.92652344 -13.75283203 2.92652344 -12.48046875 2.8515625 C-11.39378906 2.77679688 -10.30710938 2.70203125 -9.1875 2.625 C-8.10855469 2.55539063 -7.02960938 2.48578125 -5.91796875 2.4140625 C-2.81373814 2.18804267 -2.81373814 2.18804267 0 0 Z " fill="#D3F2FD" transform="translate(224,230)"/>
<path d="M0 0 C16.17 0 32.34 0 49 0 C49 3.3 49 6.6 49 10 C33.16 10 17.32 10 1 10 C1 9.67 1 9.34 1 9 C23.77 8.505 23.77 8.505 47 8 C47 5.69 47 3.38 47 1 C31.82 1 16.64 1 1 1 C1 3.31 1 5.62 1 8 C0.67 8 0.34 8 0 8 C0 5.36 0 2.72 0 0 Z " fill="#3779AB" transform="translate(232,192)"/>
<path d="M0 0 C0.99 1.485 0.99 1.485 2 3 C3.2065625 2.2575 3.2065625 2.2575 4.4375 1.5 C7 0 7 0 8 0 C8 6.27 8 12.54 8 19 C5.69 19.33 3.38 19.66 1 20 C0 19 0 19 -0.11352539 17.14233398 C-0.10828857 16.35157471 -0.10305176 15.56081543 -0.09765625 14.74609375 C-0.09443359 13.89208984 -0.09121094 13.03808594 -0.08789062 12.15820312 C-0.07951172 11.26037109 -0.07113281 10.36253906 -0.0625 9.4375 C-0.05798828 8.53580078 -0.05347656 7.63410156 -0.04882812 6.70507812 C-0.03700225 4.46998686 -0.0205222 2.23502563 0 0 Z " fill="#666370" transform="translate(336,318)"/>
<path d="M0 0 C0 1.32 0 2.64 0 4 C-1.32 4 -2.64 4 -4 4 C-4.33 4.66 -4.66 5.32 -5 6 C-5 5.34 -5 4.68 -5 4 C-5.66 4 -6.32 4 -7 4 C-7 7.3 -7 10.6 -7 14 C-9 14 -11 14 -13 14 C-13.6271777 6.00348432 -13.6271777 6.00348432 -11.125 2 C-7.26449227 -1.63341904 -5.0938485 -0.84897475 0 0 Z " fill="#474455" transform="translate(180,313)"/>
<path d="M0 0 C0.33 -0.66 0.66 -1.32 1 -2 C2.62077189 3.61036424 3.55579195 7.46245077 1 13 C-3.875 12.125 -3.875 12.125 -5 11 C-5.28289181 8.74584622 -5.4477119 6.49159344 -5.62109375 4.2265625 C-5.89200825 1.72079922 -5.89200825 1.72079922 -8 -1 C-4.37673261 -2.2077558 -3.35853631 -1.54311128 0 0 Z " fill="#504E5F" transform="translate(255,319)"/>
<path d="M0 0 C1.35568336 0.02997826 1.35568336 0.02997826 2.73875427 0.06056213 C3.75973709 0.08065842 4.78071991 0.1007547 5.8326416 0.12145996 C6.94304306 0.14849503 8.05344452 0.17553009 9.19749451 0.2033844 C10.89336952 0.23880089 10.89336952 0.23880089 12.62350464 0.27493286 C16.25115328 0.35179188 19.87860025 0.43572011 23.50608826 0.51979065 C25.95855219 0.57298908 28.41102611 0.6257296 30.86351013 0.67799377 C36.89033167 0.807437 42.91698144 0.94322238 48.94358826 1.08229065 C48.94358826 4.38229065 48.94358826 7.68229065 48.94358826 11.08229065 C48.28358826 11.08229065 47.62358826 11.08229065 46.94358826 11.08229065 C46.94358826 8.11229065 46.94358826 5.14229065 46.94358826 2.08229065 C31.10358826 2.08229065 15.26358826 2.08229065 -1.05641174 2.08229065 C-1.05641174 5.05229065 -1.05641174 8.02229065 -1.05641174 11.08229065 C-1.71641174 11.08229065 -2.37641174 11.08229065 -3.05641174 11.08229065 C-3.08329325 9.43654499 -3.10275298 7.79067652 -3.11891174 6.14479065 C-3.13051331 5.22826721 -3.14211487 4.31174377 -3.15406799 3.3674469 C-3.02856351 0.43064191 -2.93671923 0.11751758 0 0 Z " fill="#254363" transform="translate(234.05641174316406,252.91770935058594)"/>
<path d="M0 0 C15.84 0 31.68 0 48 0 C48 2.97 48 5.94 48 9 C41.4 9 34.8 9 28 9 C28 8.67 28 8.34 28 8 C33.94 8 39.88 8 46 8 C46 6.02 46 4.04 46 2 C30.82 1.67 15.64 1.34 0 1 C0 0.67 0 0.34 0 0 Z " fill="#448EC6" transform="translate(233,255)"/>
<path d="M0 0 C0 2.64 0 5.28 0 8 C-5.28 8 -10.56 8 -16 8 C-14.35 6.35 -12.7 4.7 -11 3 C-10.566875 2.401875 -10.13375 1.80375 -9.6875 1.1875 C-6.75474142 -0.87629308 -3.49182767 -0.17172923 0 0 Z " fill="#2C8CDA" transform="translate(280,214)"/>
<path d="M0 0 C0 6.27 0 12.54 0 19 C-1.65 19 -3.3 19 -5 19 C-5 13.06 -5 7.12 -5 1 C-2 0 -2 0 0 0 Z " fill="#373544" transform="translate(155,317)"/>
<path d="M0 0 C1.05574219 0.06960938 2.11148437 0.13921875 3.19921875 0.2109375 C4.80216797 0.29214844 4.80216797 0.29214844 6.4375 0.375 C7.24574219 0.44460938 8.05398438 0.51421875 8.88671875 0.5859375 C8.88671875 2.5659375 8.88671875 4.5459375 8.88671875 6.5859375 C3.27671875 6.5859375 -2.33328125 6.5859375 -8.11328125 6.5859375 C-3.11328125 0.5859375 -3.11328125 0.5859375 0 0 Z " fill="#2894E5" transform="translate(270.11328125,256.4140625)"/>
<path d="M0 0 C0.33 0 0.66 0 1 0 C1.03738281 0.69867188 1.07476562 1.39734375 1.11328125 2.1171875 C1.21189453 3.48230469 1.21189453 3.48230469 1.3125 4.875 C1.37050781 5.77992188 1.42851562 6.68484375 1.48828125 7.6171875 C1.7882039 10.36221601 1.7882039 10.36221601 5 12 C7.82437444 12.24097687 10.55877174 12.3729132 13.38671875 12.4140625 C14.61223198 12.44311172 14.61223198 12.44311172 15.86250305 12.4727478 C18.47072934 12.53250352 21.07899986 12.57891258 23.6875 12.625 C25.4563994 12.6631835 27.22528028 12.70223546 28.99414062 12.7421875 C33.32927659 12.83820168 37.6644996 12.92224735 42 13 C42 8.71 42 4.42 42 0 C42.66 0 43.32 0 44 0 C44.19393875 2.14526099 44.37998676 4.29123677 44.5625 6.4375 C44.71912109 8.22994141 44.71912109 8.22994141 44.87890625 10.05859375 C44.93884766 11.51458984 44.93884766 11.51458984 45 13 C42.88736941 15.11263059 38.21461034 14.18864061 35.29296875 14.203125 C34.41602859 14.20882507 33.53908844 14.21452515 32.63557434 14.22039795 C30.77520968 14.22986403 28.91482813 14.23638829 27.05444336 14.24023438 C24.20982454 14.24992396 21.36593292 14.28092517 18.52148438 14.3125 C16.71615014 14.31903138 14.91081071 14.32428132 13.10546875 14.328125 C12.25429977 14.3404718 11.4031308 14.3528186 10.52616882 14.36553955 C6.97397297 14.35216882 4.63025555 14.33481003 1.45532227 12.64819336 C-0.67280163 10.23803325 -0.398363 8.46521383 -0.25 5.3125 C-0.21390625 4.31863281 -0.1778125 3.32476562 -0.140625 2.30078125 C-0.09421875 1.54152344 -0.0478125 0.78226563 0 0 Z " fill="#325780" transform="translate(221,165)"/>
<path d="M0 0 C12.87 0 25.74 0 39 0 C39 0.33 39 0.66 39 1 C26.79 1 14.58 1 2 1 C2.33 2.98 2.66 4.96 3 7 C12.24 7 21.48 7 31 7 C31 7.33 31 7.66 31 8 C20.77 8 10.54 8 0 8 C0 5.36 0 2.72 0 0 Z " fill="#49ABE1" transform="translate(233,214)"/>
<path d="M0 0 C0 2.64 0 5.28 0 8 C-0.33 8 -0.66 8 -1 8 C-1.33 9.98 -1.66 11.96 -2 14 C-4.62113708 14 -6.50935112 13.68707555 -9 13 C-9 12.34 -9 11.68 -9 11 C-9.66 10.67 -10.32 10.34 -11 10 C-10.0409375 9.443125 -10.0409375 9.443125 -9.0625 8.875 C-6.69217794 7.11060481 -6.69217794 7.11060481 -6.5 3.9375 C-6 1 -6 1 -4.0625 -0.4375 C-2 -1 -2 -1 0 0 Z " fill="#413E50" transform="translate(229,320)"/>
<path d="M0 0 C2.97 0 5.94 0 9 0 C9 0.99 9 1.98 9 3 C8.01 3.99 7.02 4.98 6 6 C18.87 6.495 18.87 6.495 32 7 C32 7.33 32 7.66 32 8 C21.44 8 10.88 8 0 8 C0 5.36 0 2.72 0 0 Z " fill="#3D99DA" transform="translate(233,235)"/>
<path d="M0 0 C0.433125 0.639375 0.86625 1.27875 1.3125 1.9375 C2.91239177 4.26746003 2.91239177 4.26746003 6 5 C4.9802352 7.78117672 4.33608762 8.81833102 1.6875 10.25 C-1.08962503 11.02501164 -3.13999444 11.38648724 -6 11 C-6.66 10.01 -7.32 9.02 -8 8 C-7.34 7.67 -6.68 7.34 -6 7 C-6 5.68 -6 4.36 -6 3 C-5.195625 2.87625 -4.39125 2.7525 -3.5625 2.625 C-2.716875 2.41875 -1.87125 2.2125 -1 2 C-0.67 1.34 -0.34 0.68 0 0 Z " fill="#4B485A" transform="translate(249,327)"/>
<path d="M0 0 C3.39585134 1.40517986 5.0627791 2.87861872 7 6 C7.3984375 8.4375 7.3984375 8.4375 7.375 11 C7.38273438 11.845625 7.39046875 12.69125 7.3984375 13.5625 C6.9291142 16.43365432 5.89489101 17.83441027 4 20 C4 17.69 4 15.38 4 13 C4.33 13 4.66 13 5 13 C5 11.02 5 9.04 5 7 C4.34 7.66 3.68 8.32 3 9 C2.01 8.67 1.02 8.34 0 8 C0 9.98 0 11.96 0 14 C-0.33 14 -0.66 14 -1 14 C-1.12375 12.88625 -1.2475 11.7725 -1.375 10.625 C-1.6465813 6.96896323 -1.6465813 6.96896323 -4 5 C-3.34 5 -2.68 5 -2 5 C-2 4.34 -2 3.68 -2 3 C-1.34 3 -0.68 3 0 3 C0 2.01 0 1.02 0 0 Z " fill="#6C6A78" transform="translate(223,313)"/>
<path d="M0 0 C0.5775 0.78375 1.155 1.5675 1.75 2.375 C3.82897637 4.80047244 5.09040333 5.85694417 8 7 C9.98 5.68 11.96 4.36 14 3 C14 5.31 14 7.62 14 10 C9.38 10 4.76 10 0 10 C0 6.7 0 3.4 0 0 Z " fill="#52A2D7" transform="translate(209,254)"/>
<path d="M0 0 C1.46484375 1.26953125 2.9296875 2.5390625 4.39453125 3.80859375 C6.10712971 5.20871231 6.10712971 5.20871231 9 6 C9 5.34 9 4.68 9 4 C9.66 4 10.32 4 11 4 C11 3.34 11 2.68 11 2 C11.99 1.67 12.98 1.34 14 1 C14 3.31 14 5.62 14 8 C9.38 8 4.76 8 0 8 C0 5.36 0 2.72 0 0 Z " fill="#4C96C8" transform="translate(209,194)"/>
<path d="M0 0 C2.375 0.8125 2.375 0.8125 4 2 C4.33 2.99 4.66 3.98 5 5 C3.5625 7.1875 3.5625 7.1875 2 9 C-0.31 8.34 -2.62 7.68 -5 7 C-4.34 5.35 -3.68 3.7 -3 2 C-3.99 1.67 -4.98 1.34 -6 1 C-6.33 1.99 -6.66 2.98 -7 4 C-8.32 3.67 -9.64 3.34 -11 3 C-7.4820167 -0.37726396 -4.75972022 -0.42497502 0 0 Z " fill="#696774" transform="translate(321,311)"/>
<path d="M0 0 C0.66 0 1.32 0 2 0 C2 3.63 2 7.26 2 11 C3.65 11.33 5.3 11.66 7 12 C7.33 12.66 7.66 13.32 8 14 C4.05272412 14.17942163 1.4019487 14.09350689 -2 12 C-2.33 13.65 -2.66 15.3 -3 17 C-5.2477975 14.94766315 -6.0022242 13.99332739 -7 11 C-7.03954234 8.66700175 -7.04401732 6.33291811 -7 4 C-6.67 4 -6.34 4 -6 4 C-6 5.98 -6 7.96 -6 10 C-5.01 10 -4.02 10 -3 10 C-2.67 9.34 -2.34 8.68 -2 8 C-1.67 8.33 -1.34 8.66 -1 9 C-0.67 6.03 -0.34 3.06 0 0 Z " fill="#777581" transform="translate(173,317)"/>
<path d="M0 0 C3.63 0 7.26 0 11 0 C6.80078125 6.25 6.80078125 6.25 5 8 C2.29296875 8.25 2.29296875 8.25 0 8 C0 5.36 0 2.72 0 0 Z " fill="#3997DC" transform="translate(233,193)"/>
<path d="M0 0 C0 2.31 0 4.62 0 7 C-3.96 7 -7.92 7 -12 7 C-6.20833333 -0.16337719 -6.20833333 -0.16337719 0 0 Z " fill="#2D90E5" transform="translate(279,193)"/>
<path d="M0 0 C5.26371362 -0.50130606 7.9090934 0.68831371 12 4 C12 4.66 12 5.32 12 6 C12.66 6 13.32 6 14 6 C14 7.65 14 9.3 14 11 C13.67 9.68 13.34 8.36 13 7 C10.69 6.67 8.38 6.34 6 6 C6.33 7.32 6.66 8.64 7 10 C6.34 9.67 5.68 9.34 5 9 C5 8.34 5 7.68 5 7 C3.68 6.67 2.36 6.34 1 6 C2.32 5.67 3.64 5.34 5 5 C5 4.34 5 3.68 5 3 C3.35 3 1.7 3 0 3 C0 2.01 0 1.02 0 0 Z " fill="#676573" transform="translate(175,311)"/>
<path d="M0 0 C1.65 1.32 3.3 2.64 5 4 C5.598125 3.690625 6.19625 3.38125 6.8125 3.0625 C9 2 9 2 12 1 C12 2.98 12 4.96 12 7 C8.04 7 4.08 7 0 7 C0 4.69 0 2.38 0 0 Z " fill="#4783B5" transform="translate(210,216)"/>
<path d="M0 0 C0.268125 0.61875 0.53625 1.2375 0.8125 1.875 C1.95556848 4.2995233 1.95556848 4.2995233 5 6 C4.34 7.65 3.68 9.3 3 11 C0.31546973 10.62971996 -0.8677757 10.12340935 -2.875 8.25 C-4 6 -4 6 -3.3125 3.3125 C-2 1 -2 1 0 0 Z " fill="#504D5E" transform="translate(239,326)"/>
<path d="M0 0 C0.66 0 1.32 0 2 0 C2.33 0.99 2.66 1.98 3 3 C5.97 3.495 5.97 3.495 9 4 C8.38125 4.4125 7.7625 4.825 7.125 5.25 C4.93231719 7.05573879 4.07211583 8.4090534 3 11 C2.67 10.34 2.34 9.68 2 9 C1.34 9 0.68 9 0 9 C-1.6875 7.75 -1.6875 7.75 -3 6 C-2.6875 3.8125 -2.6875 3.8125 -2 2 C-1.34 2 -0.68 2 0 2 C0 1.34 0 0.68 0 0 Z " fill="#5B5968" transform="translate(238,313)"/>
<path d="M0 0 C1.27617187 0.00483398 1.27617187 0.00483398 2.578125 0.00976562 C3.46757812 0.01814453 4.35703125 0.02652344 5.2734375 0.03515625 C6.170625 0.03966797 7.0678125 0.04417969 7.9921875 0.04882812 C10.21100398 0.06063034 12.42968768 0.0770947 14.6484375 0.09765625 C14.6484375 0.42765625 14.6484375 0.75765625 14.6484375 1.09765625 C11.0184375 1.09765625 7.3884375 1.09765625 3.6484375 1.09765625 C3.6484375 1.75765625 3.6484375 2.41765625 3.6484375 3.09765625 C1.3223518 3.47828846 -1.01211514 3.8103557 -3.3515625 4.09765625 C-3.6815625 3.76765625 -4.0115625 3.43765625 -4.3515625 3.09765625 C-5.0115625 4.08765625 -5.6715625 5.07765625 -6.3515625 6.09765625 C-6.3515625 4.44765625 -6.3515625 2.79765625 -6.3515625 1.09765625 C-4.00303722 -0.07660639 -2.61382185 -0.01742548 0 0 Z " fill="#8A899A" transform="translate(147.3515625,310.90234375)"/>
<path d="M0 0 C2.31 0 4.62 0 7 0 C7 8.58 7 17.16 7 26 C4.69 26 2.38 26 0 26 C0 25.67 0 25.34 0 25 C1.98 25 3.96 25 6 25 C6 17.08 6 9.16 6 1 C2.9254644 1.7763932 2.9254644 1.7763932 1 4 C0.34 3.67 -0.32 3.34 -1 3 C-0.67 2.01 -0.34 1.02 0 0 Z " fill="#A09EA7" transform="translate(295,312)"/>
<path d="M0 0 C0.99 0.33 1.98 0.66 3 1 C1.40279281 5.3124594 -1.31633819 7.42143673 -5 10 C-7.375 9.8125 -7.375 9.8125 -9 9 C-8.01 8.67 -7.02 8.34 -6 8 C-5.87625 7.401875 -5.7525 6.80375 -5.625 6.1875 C-4.69254467 2.92390634 -2.78803691 1.79230944 0 0 Z " fill="#E7F0F5" transform="translate(224,230)"/>
<path d="M0 0 C1.2065625 0.0309375 1.2065625 0.0309375 2.4375 0.0625 C2.4375 1.3825 2.4375 2.7025 2.4375 4.0625 C3.4275 4.3925 4.4175 4.7225 5.4375 5.0625 C-0.01143869 6.26126651 -2.78419095 5.97610308 -7.5625 3.0625 C-6.923125 2.753125 -6.28375 2.44375 -5.625 2.125 C-1.57454819 0.03840361 -1.57454819 0.03840361 0 0 Z " fill="#5B5868" transform="translate(177.5625,331.9375)"/>
<path d="M0 0 C2.0625 1.5625 2.0625 1.5625 4 4 C3.75 7.75 3.75 7.75 3 11 C1.35 9.35 -0.3 7.7 -2 6 C-1.34 4.02 -0.68 2.04 0 0 Z " fill="#62626E" transform="translate(323,323)"/>
<path d="M0 0 C1.65 1.32 3.3 2.64 5 4 C7.49361571 2.79618552 9.68143083 1.54571278 12 0 C11.67 1.98 11.34 3.96 11 6 C7.37 6 3.74 6 0 6 C0 4.02 0 2.04 0 0 Z " fill="#5B9DD0" transform="translate(210,237)"/>
<path d="M0 0 C2.97 0.495 2.97 0.495 6 1 C4.68 1.33 3.36 1.66 2 2 C2 2.66 2 3.32 2 4 C2.66 4.33 3.32 4.66 4 5 C4 5.99 4 6.98 4 8 C-0.75 7.125 -0.75 7.125 -3 6 C-3 5.01 -3 4.02 -3 3 C-2.34 3 -1.68 3 -1 3 C-0.67 2.01 -0.34 1.02 0 0 Z " fill="#535060" transform="translate(310,329)"/>
<path d="M0 0 C1.65 0 3.3 0 5 0 C5 2.31 5 4.62 5 7 C4.67 6.01 4.34 5.02 4 4 C3.67 4.66 3.34 5.32 3 6 C2.34 6 1.68 6 1 6 C1 8.97 1 11.94 1 15 C0.67 15 0.34 15 0 15 C0 10.05 0 5.1 0 0 Z " fill="#363343" transform="translate(273,313)"/>
<path d="M0 0 C2.97 0 5.94 0 9 0 C9 1.32 9 2.64 9 4 C6.36 4.33 3.72 4.66 1 5 C0.67 3.35 0.34 1.7 0 0 Z " fill="#343343" transform="translate(279,332)"/>
<path d="M0 0 C0.33 0 0.66 0 1 0 C1.04254356 1.99954746 1.04080783 4.00041636 1 6 C0 7 0 7 -2.72265625 7.09765625 C-4.37587891 7.08025391 -4.37587891 7.08025391 -6.0625 7.0625 C-7.16722656 7.05347656 -8.27195313 7.04445312 -9.41015625 7.03515625 C-10.69212891 7.01775391 -10.69212891 7.01775391 -12 7 C-12 6.34 -12 5.68 -12 5 C-8.37 5 -4.74 5 -1 5 C-0.67 3.35 -0.34 1.7 0 0 Z " fill="#2A4D73" transform="translate(222,238)"/>
<path d="M0 0 C2.12038635 2.61514317 4.13091744 5.19637616 6 8 C5.67 8.66 5.34 9.32 5 10 C3.35 10 1.7 10 0 10 C0 6.7 0 3.4 0 0 Z " fill="#5C9BC7" transform="translate(209,254)"/>
<path d="M0 0 C0.33 0 0.66 0 1 0 C1 1.98 1 3.96 1 6 C0.34 6 -0.32 6 -1 6 C-1 7.65 -1 9.3 -1 11 C-5.62 11 -10.24 11 -15 11 C-15 10.67 -15 10.34 -15 10 C-10.71 10 -6.42 10 -2 10 C-2.04125 8.72125 -2.0825 7.4425 -2.125 6.125 C-2.1953125 3.9453125 -2.1953125 3.9453125 -2 2 C-1.34 1.34 -0.68 0.68 0 0 Z " fill="#394D6A" transform="translate(225,254)"/>
<path d="M0 0 C0 2.31 0 4.62 0 7 C-2 7 -4 7 -6 7 C-6 5.02 -6 3.04 -6 1 C-1.125 0 -1.125 0 0 0 Z " fill="#343242" transform="translate(173,320)"/>
<path d="M0 0 C2.31 0 4.62 0 7 0 C7 1.65 7 3.3 7 5 C5.02 5 3.04 5 1 5 C0.67 3.35 0.34 1.7 0 0 Z " fill="#383645" transform="translate(155,312)"/>
<path d="M0 0 C0.99 0.33 1.98 0.66 3 1 C1.70700306 3.88437779 0.34058637 5.87219421 -2 8 C-2.99 7.67 -3.98 7.34 -5 7 C-3.47793991 4.37098712 -2.15634036 2.15634036 0 0 Z " fill="#E3ECF3" transform="translate(224,188)"/>
<path d="M0 0 C0.66 0 1.32 0 2 0 C2.33 4.29 2.66 8.58 3 13 C2.01 13.33 1.02 13.66 0 14 C0 9.38 0 4.76 0 0 Z " fill="#25486E" transform="translate(263,165)"/>
<path d="M0 0 C3.63 0 7.26 0 11 0 C9.71937515 1.7074998 8.38232443 3.37373596 7 5 C5 5 5 5 3.5 3.625 C3.005 3.08875 2.51 2.5525 2 2 C1.34 1.34 0.68 0.68 0 0 Z " fill="#66A6D1" transform="translate(210,253)"/>
<path d="M0 0 C0.66 0 1.32 0 2 0 C2 0.66 2 1.32 2 2 C2.61488281 1.89300781 3.22976562 1.78601563 3.86328125 1.67578125 C5.07564453 1.49595703 5.07564453 1.49595703 6.3125 1.3125 C7.11300781 1.18488281 7.91351563 1.05726563 8.73828125 0.92578125 C11 1 11 1 14 4 C10.04 4 6.08 4 2 4 C1.34 2.68 0.68 1.36 0 0 Z " fill="#32425A" transform="translate(208,249)"/>
<path d="M0 0 C3.63 0 7.26 0 11 0 C9.515 1.98 9.515 1.98 8 4 C5.03824877 3.38722388 3.61941217 2.74627478 1 1 C0.67 1.99 0.34 2.98 0 4 C0 2.68 0 1.36 0 0 Z " fill="#6EABD2" transform="translate(209,233)"/>
<path d="M0 0 C3.3 0 6.6 0 10 0 C10 0.66 10 1.32 10 2 C9.34 2 8.68 2 8 2 C7.67 2.99 7.34 3.98 7 5 C3.90837736 3.61410019 2.50816459 2.50816459 0 0 Z " fill="#61AAD7" transform="translate(210,212)"/>
<path d="M0 0 C5.94 0 11.88 0 18 0 C17.67 0.66 17.34 1.32 17 2 C15.91332031 1.96519531 15.91332031 1.96519531 14.8046875 1.9296875 C9.45421756 1.82981206 5.00553918 1.83544252 0 4 C0 2.68 0 1.36 0 0 Z " fill="#32303F" transform="translate(201,165)"/>
<path d="M0 0 C0.433125 0.639375 0.86625 1.27875 1.3125 1.9375 C2.91239177 4.26746003 2.91239177 4.26746003 6 5 C5.67 5.99 5.34 6.98 5 8 C4.67 7.34 4.34 6.68 4 6 C3.01 6.33 2.02 6.66 1 7 C0.67 6.01 0.34 5.02 0 4 C-1.65 4.33 -3.3 4.66 -5 5 C-5.33 4.34 -5.66 3.68 -6 3 C-5.195625 2.87625 -4.39125 2.7525 -3.5625 2.625 C-2.716875 2.41875 -1.87125 2.2125 -1 2 C-0.67 1.34 -0.34 0.68 0 0 Z " fill="#757280" transform="translate(249,327)"/>
<path d="M0 0 C-0.39803561 2.88575819 -0.79009069 3.82189513 -3.0625 5.75 C-3.701875 6.1625 -4.34125 6.575 -5 7 C-5.66 5.68 -6.32 4.36 -7 3 C-6.34 3 -5.68 3 -5 3 C-5 2.34 -5 1.68 -5 1 C-3 0 -3 0 0 0 Z " fill="#E9E8ED" transform="translate(227,209)"/>
<path d="M0 0 C3.63 0 7.26 0 11 0 C9.35 1.65 7.7 3.3 6 5 C5.566875 4.54625 5.13375 4.0925 4.6875 3.625 C2.89201658 1.79975666 2.89201658 1.79975666 0 0 Z " fill="#63A7D9" transform="translate(210,191)"/>
<path d="M0 0 C0.33 0.99 0.66 1.98 1 3 C-2.4766338 5.14336161 -5.21229195 5.21277626 -9.25 5.125 C-10.32765625 5.10695313 -11.4053125 5.08890625 -12.515625 5.0703125 C-13.33546875 5.04710937 -14.1553125 5.02390625 -15 5 C-15 4.67 -15 4.34 -15 4 C-14.41992188 3.96261719 -13.83984375 3.92523438 -13.2421875 3.88671875 C-8.18321136 3.46096333 -4.45720842 2.62861009 0 0 Z " fill="#5D5B69" transform="translate(225,332)"/>
<path d="M0 0 C4.455 0.99 4.455 0.99 9 2 C5 4 5 4 1 6 C0.34 5.34 -0.32 4.68 -1 4 C-0.67 2.68 -0.34 1.36 0 0 Z " fill="#353243" transform="translate(171,329)"/>
<path d="M0 0 C2.31 0.33 4.62 0.66 7 1 C6.01 1.495 6.01 1.495 5 2 C5 2.66 5 3.32 5 4 C5.66 4.66 6.32 5.32 7 6 C5.35 6 3.7 6 2 6 C2 5.34 2 4.68 2 4 C1.34 3.67 0.68 3.34 0 3 C0 2.01 0 1.02 0 0 Z " fill="#343241" transform="translate(312,331)"/>
<path d="M0 0 C1.4540625 0.0309375 1.4540625 0.0309375 2.9375 0.0625 C2.9375 1.0525 2.9375 2.0425 2.9375 3.0625 C2.2775 3.0625 1.6175 3.0625 0.9375 3.0625 C0.9375 3.7225 0.9375 4.3825 0.9375 5.0625 C-1 4.75 -1 4.75 -3.0625 4.0625 C-3.3925 3.0725 -3.7225 2.0825 -4.0625 1.0625 C-3.0625 0.0625 -3.0625 0.0625 0 0 Z " fill="#373542" transform="translate(220.0625,312.9375)"/>
<path d="M0 0 C0.66 0 1.32 0 2 0 C2 1.65 2 3.3 2 5 C-0.31 5.33 -2.62 5.66 -5 6 C-3.625 4 -3.625 4 -2 2 C-1.34 2 -0.68 2 0 2 C0 1.34 0 0.68 0 0 Z " fill="#2491DF" transform="translate(272,235)"/>
<path d="M0 0 C0.99 0 1.98 0 3 0 C2.67 2.64 2.34 5.28 2 8 C1.34 8 0.68 8 0 8 C-0.66 6.35 -1.32 4.7 -2 3 C-1.34 2.67 -0.68 2.34 0 2 C0 1.34 0 0.68 0 0 Z " fill="#353345" transform="translate(320,323)"/>
<path d="M0 0 C2.31 0.33 4.62 0.66 7 1 C6.01 1.33 5.02 1.66 4 2 C4 2.66 4 3.32 4 4 C2.35 4 0.7 4 -1 4 C-0.67 2.68 -0.34 1.36 0 0 Z " fill="#555362" transform="translate(316,321)"/>
<path d="M0 0 C1.65 0 3.3 0 5 0 C3.35 2.64 1.7 5.28 0 8 C-0.66 7.34 -1.32 6.68 -2 6 C-1.34 4.02 -0.68 2.04 0 0 Z " fill="#353244" transform="translate(315,312)"/>
<path d="M0 0 C1.16945792 0.80847729 2.33550461 1.62189112 3.5 2.4375 C4.47453125 3.11619141 4.47453125 3.11619141 5.46875 3.80859375 C5.9740625 4.20175781 6.479375 4.59492188 7 5 C7 5.33 7 5.66 7 6 C4.69 6 2.38 6 0 6 C0 4.02 0 2.04 0 0 Z " fill="#5BA3D6" transform="translate(210,216)"/>
<path d="M0 0 C0.66 0.33 1.32 0.66 2 1 C1.67 1.66 1.34 2.32 1 3 C2.32 3.66 3.64 4.32 5 5 C1.7 5 -1.6 5 -5 5 C-3.35 3.35 -1.7 1.7 0 0 Z " fill="#248FDC" transform="translate(272,195)"/>
<path d="M0 0 C1 3 1 3 1 5 C0.34 5 -0.32 5 -1 5 C-1 5.66 -1 6.32 -1 7 C-2.32 6.67 -3.64 6.34 -5 6 C-5 5.34 -5 4.68 -5 4 C-3.37373596 2.61767557 -1.7074998 1.28062485 0 0 Z " fill="#D2F4FE" transform="translate(219,193)"/>
<path d="M0 0 C2 2 2 2 2.125 4.625 C2.08375 5.40875 2.0425 6.1925 2 7 C-1 6 -1 6 -3 5 C-1.125 1.125 -1.125 1.125 0 0 Z " fill="#414056" transform="translate(226,191)"/>
<path d="M0 0 C-1.65 1.98 -3.3 3.96 -5 6 C-5.66 5.34 -6.32 4.68 -7 4 C-6.75 1.9375 -6.75 1.9375 -6 0 C-3.50907189 -1.24546405 -2.58919267 -0.7767578 0 0 Z " fill="#2A9BE8" transform="translate(244,194)"/>
<path d="M0 0 C0.99 0 1.98 0 3 0 C3 0.99 3 1.98 3 3 C-1.62 3 -6.24 3 -11 3 C-11 2.67 -11 2.34 -11 2 C-10.28972656 1.93941406 -9.57945312 1.87882812 -8.84765625 1.81640625 C-7.46900391 1.69072266 -7.46900391 1.69072266 -6.0625 1.5625 C-5.14597656 1.48128906 -4.22945313 1.40007812 -3.28515625 1.31640625 C-1.03840268 1.23955024 -1.03840268 1.23955024 0 0 Z " fill="#33313D" transform="translate(290,275)"/>
<path d="M0 0 C0.99 0.33 1.98 0.66 3 1 C2.34 2.32 1.68 3.64 1 5 C-2 5 -2 5 -4 4 C-2.68 2.68 -1.36 1.36 0 0 Z " fill="#E7EAF1" transform="translate(224,250)"/>
<path d="M0 0 C0.33 0.99 0.66 1.98 1 3 C0.01 4.485 0.01 4.485 -1 6 C-1 6.99 -1 7.98 -1 9 C-2.65 9 -4.3 9 -6 9 C-5.67 8.34 -5.34 7.68 -5 7 C-4.34 7 -3.68 7 -3 7 C-2.690625 6.030625 -2.38125 5.06125 -2.0625 4.0625 C-1 1 -1 1 0 0 Z " fill="#544E5F" transform="translate(228,228)"/>
<path d="M0 0 C1.98 0 3.96 0 6 0 C6 2.31 6 4.62 6 7 C5.34 7 4.68 7 4 7 C3.896875 6.21625 3.79375 5.4325 3.6875 4.625 C3.22404978 1.66954819 3.22404978 1.66954819 0 0 Z " fill="#358DD2" transform="translate(274,235)"/>
<path d="M0 0 C2.97 0.495 2.97 0.495 6 1 C3.92690266 2.11058786 2.11381589 2.97398494 -0.1875 3.5 C-0.785625 3.665 -1.38375 3.83 -2 4 C-2.33 4.66 -2.66 5.32 -3 6 C-3 5.01 -3 4.02 -3 3 C-2.34 3 -1.68 3 -1 3 C-0.67 2.01 -0.34 1.02 0 0 Z " fill="#8B8A91" transform="translate(310,329)"/>
<path d="M0 0 C2 2 2 2 2.1953125 3.9453125 C2.13020833 5.96354167 2.06510417 7.98177083 2 10 C1.34 10 0.68 10 0 10 C-1.125 3.375 -1.125 3.375 0 0 Z " fill="#6A6673" transform="translate(309,315)"/>
<path d="M0 0 C0.33 0 0.66 0 1 0 C1 2.64 1 5.28 1 8 C0.01 8 -0.98 8 -2 8 C-1.125 1.125 -1.125 1.125 0 0 Z " fill="#264262" transform="translate(232,214)"/>
<path d="M0 0 C0.66 0 1.32 0 2 0 C3.0326802 2.78823655 3.04509293 3.8677274 2.0625 6.75 C1.711875 7.4925 1.36125 8.235 1 9 C0.67 9 0.34 9 0 9 C0 6.03 0 3.06 0 0 Z " fill="#302D3E" transform="translate(250,321)"/>
</svg>
